<mxfile host="app.diagrams.net" modified="2023-05-10T15:20:13.097Z" agent="Mozilla/5.0 (X11; Ubuntu; Linux x86_64; rv:109.0) Gecko/20100101 Firefox/112.0" etag="D3RUD8iDFTGmaM3WztIo" version="21.1.8" type="device">
  <diagram name="Page-1" id="2YF4GnCdR7P2hsEeMEEk">
    <mxGraphModel dx="3457" dy="1495" grid="1" gridSize="10" guides="1" tooltips="1" connect="1" arrows="1" fold="1" page="1" pageScale="1" pageWidth="850" pageHeight="1100" math="0" shadow="0">
      <root>
        <mxCell id="0" />
        <mxCell id="1" parent="0" />
        <mxCell id="V2b90kkNqWV_B73Vr2Vg-79" value="" style="rounded=0;whiteSpace=wrap;html=1;fillColor=#FFF7E6;strokeColor=#d6b656;" vertex="1" parent="1">
          <mxGeometry x="80" y="838" width="1650" height="1382" as="geometry" />
        </mxCell>
        <mxCell id="V2b90kkNqWV_B73Vr2Vg-2" value="" style="rounded=1;whiteSpace=wrap;html=1;fillColor=none;strokeWidth=3;" vertex="1" parent="1">
          <mxGeometry x="300" y="980" width="1190" height="880" as="geometry" />
        </mxCell>
        <mxCell id="V2b90kkNqWV_B73Vr2Vg-45" style="rounded=0;orthogonalLoop=1;jettySize=auto;html=1;exitX=1;exitY=0.5;exitDx=0;exitDy=0;entryX=0;entryY=0.5;entryDx=0;entryDy=0;strokeColor=#A6A5A2;dashed=1;endArrow=none;endFill=0;" edge="1" parent="1" source="V2b90kkNqWV_B73Vr2Vg-10" target="V2b90kkNqWV_B73Vr2Vg-9">
          <mxGeometry relative="1" as="geometry" />
        </mxCell>
        <mxCell id="V2b90kkNqWV_B73Vr2Vg-47" style="rounded=0;orthogonalLoop=1;jettySize=auto;html=1;exitX=1;exitY=0.5;exitDx=0;exitDy=0;entryX=0.003;entryY=0.382;entryDx=0;entryDy=0;strokeColor=#C2C1BE;dashed=1;endArrow=none;endFill=0;entryPerimeter=0;" edge="1" parent="1" source="V2b90kkNqWV_B73Vr2Vg-10" target="V2b90kkNqWV_B73Vr2Vg-7">
          <mxGeometry relative="1" as="geometry">
            <mxPoint x="440" y="1440" as="sourcePoint" />
            <mxPoint x="540" y="1125" as="targetPoint" />
          </mxGeometry>
        </mxCell>
        <mxCell id="V2b90kkNqWV_B73Vr2Vg-48" style="rounded=0;orthogonalLoop=1;jettySize=auto;html=1;exitX=1;exitY=0.5;exitDx=0;exitDy=0;entryX=0;entryY=0.5;entryDx=0;entryDy=0;strokeColor=#A6A5A2;dashed=1;endArrow=none;endFill=0;" edge="1" parent="1" source="V2b90kkNqWV_B73Vr2Vg-10" target="V2b90kkNqWV_B73Vr2Vg-5">
          <mxGeometry relative="1" as="geometry">
            <mxPoint x="450" y="1450" as="sourcePoint" />
            <mxPoint x="550" y="1135" as="targetPoint" />
          </mxGeometry>
        </mxCell>
        <mxCell id="V2b90kkNqWV_B73Vr2Vg-49" style="rounded=0;orthogonalLoop=1;jettySize=auto;html=1;exitX=1;exitY=0.5;exitDx=0;exitDy=0;entryX=0;entryY=0.5;entryDx=0;entryDy=0;strokeColor=#A6A5A2;dashed=1;endArrow=none;endFill=0;" edge="1" parent="1" source="V2b90kkNqWV_B73Vr2Vg-10" target="V2b90kkNqWV_B73Vr2Vg-6">
          <mxGeometry relative="1" as="geometry">
            <mxPoint x="460" y="1460" as="sourcePoint" />
            <mxPoint x="560" y="1145" as="targetPoint" />
          </mxGeometry>
        </mxCell>
        <mxCell id="V2b90kkNqWV_B73Vr2Vg-50" style="rounded=0;orthogonalLoop=1;jettySize=auto;html=1;exitX=1;exitY=0.5;exitDx=0;exitDy=0;entryX=-0.01;entryY=0.604;entryDx=0;entryDy=0;strokeColor=#A6A5A2;dashed=1;endArrow=none;endFill=0;entryPerimeter=0;" edge="1" parent="1" source="V2b90kkNqWV_B73Vr2Vg-10" target="V2b90kkNqWV_B73Vr2Vg-4">
          <mxGeometry relative="1" as="geometry">
            <mxPoint x="470" y="1470" as="sourcePoint" />
            <mxPoint x="570" y="1155" as="targetPoint" />
          </mxGeometry>
        </mxCell>
        <mxCell id="V2b90kkNqWV_B73Vr2Vg-51" style="rounded=0;orthogonalLoop=1;jettySize=auto;html=1;exitX=1;exitY=0.5;exitDx=0;exitDy=0;entryX=0;entryY=0.75;entryDx=0;entryDy=0;strokeColor=#A6A5A2;dashed=1;endArrow=none;endFill=0;" edge="1" parent="1" source="V2b90kkNqWV_B73Vr2Vg-10" target="V2b90kkNqWV_B73Vr2Vg-3">
          <mxGeometry relative="1" as="geometry">
            <mxPoint x="480" y="1480" as="sourcePoint" />
            <mxPoint x="580" y="1165" as="targetPoint" />
          </mxGeometry>
        </mxCell>
        <mxCell id="V2b90kkNqWV_B73Vr2Vg-3" value="&lt;div&gt;&lt;font size=&quot;1&quot;&gt;&lt;b&gt;&lt;font style=&quot;font-size: 16px;&quot;&gt;portainer&lt;/font&gt;&lt;/b&gt;&lt;/font&gt;&lt;/div&gt;&lt;div&gt;&lt;font size=&quot;1&quot;&gt;&lt;b&gt;&lt;font style=&quot;font-size: 16px;&quot;&gt;&lt;br&gt;&lt;/font&gt;&lt;/b&gt;&lt;/font&gt;&lt;/div&gt;Docker management" style="rounded=0;whiteSpace=wrap;html=1;fillColor=#f5f5f5;fontColor=#333333;strokeColor=#666666;" vertex="1" parent="1">
          <mxGeometry x="1180" y="1065" width="240" height="80" as="geometry" />
        </mxCell>
        <mxCell id="V2b90kkNqWV_B73Vr2Vg-40" style="edgeStyle=orthogonalEdgeStyle;rounded=0;orthogonalLoop=1;jettySize=auto;html=1;exitX=0;exitY=0.5;exitDx=0;exitDy=0;entryX=1;entryY=0.5;entryDx=0;entryDy=0;endArrow=none;endFill=0;" edge="1" parent="1" source="V2b90kkNqWV_B73Vr2Vg-4" target="V2b90kkNqWV_B73Vr2Vg-5">
          <mxGeometry relative="1" as="geometry" />
        </mxCell>
        <mxCell id="V2b90kkNqWV_B73Vr2Vg-73" value="&lt;div&gt;manage&lt;/div&gt;&lt;div&gt;database&lt;/div&gt;" style="edgeLabel;html=1;align=center;verticalAlign=middle;resizable=0;points=[];" vertex="1" connectable="0" parent="V2b90kkNqWV_B73Vr2Vg-40">
          <mxGeometry x="0.2174" y="3" relative="1" as="geometry">
            <mxPoint y="5" as="offset" />
          </mxGeometry>
        </mxCell>
        <mxCell id="V2b90kkNqWV_B73Vr2Vg-41" style="edgeStyle=orthogonalEdgeStyle;rounded=0;orthogonalLoop=1;jettySize=auto;html=1;exitX=0;exitY=0.75;exitDx=0;exitDy=0;entryX=1;entryY=0.5;entryDx=0;entryDy=0;endArrow=none;endFill=0;" edge="1" parent="1" source="V2b90kkNqWV_B73Vr2Vg-4" target="V2b90kkNqWV_B73Vr2Vg-6">
          <mxGeometry relative="1" as="geometry" />
        </mxCell>
        <mxCell id="V2b90kkNqWV_B73Vr2Vg-74" value="manage &lt;br&gt;database" style="edgeLabel;html=1;align=center;verticalAlign=middle;resizable=0;points=[];" vertex="1" connectable="0" parent="V2b90kkNqWV_B73Vr2Vg-41">
          <mxGeometry x="-0.1111" y="-2" relative="1" as="geometry">
            <mxPoint y="12" as="offset" />
          </mxGeometry>
        </mxCell>
        <mxCell id="V2b90kkNqWV_B73Vr2Vg-4" value="&lt;div&gt;&lt;font size=&quot;1&quot;&gt;&lt;b&gt;&lt;font style=&quot;font-size: 16px;&quot;&gt;pgadmin&lt;/font&gt;&lt;/b&gt;&lt;/font&gt;&lt;/div&gt;&lt;div&gt;&lt;font size=&quot;1&quot;&gt;&lt;b&gt;&lt;font style=&quot;font-size: 16px;&quot;&gt;&lt;br&gt;&lt;/font&gt;&lt;/b&gt;&lt;/font&gt;&lt;/div&gt;PostgreSQL management" style="rounded=0;whiteSpace=wrap;html=1;fillColor=#f5f5f5;fontColor=#333333;strokeColor=#666666;" vertex="1" parent="1">
          <mxGeometry x="1180" y="1560" width="220" height="80" as="geometry" />
        </mxCell>
        <mxCell id="V2b90kkNqWV_B73Vr2Vg-5" value="&lt;div&gt;&lt;b&gt;&lt;font style=&quot;font-size: 16px;&quot;&gt;postgres-service&lt;/font&gt;&lt;/b&gt;&lt;/div&gt;&lt;div&gt;&lt;b&gt;&lt;font style=&quot;font-size: 16px;&quot;&gt;&lt;br&gt;&lt;/font&gt;&lt;/b&gt;&lt;/div&gt;PostgreSQL for service data" style="rounded=0;whiteSpace=wrap;html=1;fillColor=#f5f5f5;fontColor=#333333;strokeColor=#666666;" vertex="1" parent="1">
          <mxGeometry x="850" y="1440" width="220" height="80" as="geometry" />
        </mxCell>
        <mxCell id="V2b90kkNqWV_B73Vr2Vg-6" value="&lt;div&gt;&lt;b&gt;&lt;font style=&quot;font-size: 16px;&quot;&gt;postgres-data&lt;/font&gt;&lt;/b&gt;&lt;/div&gt;&lt;div&gt;&lt;b&gt;&lt;font style=&quot;font-size: 16px;&quot;&gt;&lt;br&gt;&lt;/font&gt;&lt;/b&gt;&lt;/div&gt;PostgreSQL for user data" style="rounded=0;whiteSpace=wrap;html=1;fillColor=#f5f5f5;fontColor=#333333;strokeColor=#666666;" vertex="1" parent="1">
          <mxGeometry x="850" y="1680" width="220" height="80" as="geometry" />
        </mxCell>
        <mxCell id="V2b90kkNqWV_B73Vr2Vg-7" value="&lt;div&gt;&lt;font size=&quot;1&quot;&gt;&lt;b&gt;&lt;font style=&quot;font-size: 16px;&quot;&gt;minio&lt;/font&gt;&lt;/b&gt;&lt;/font&gt;&lt;/div&gt;&lt;div&gt;&lt;font size=&quot;1&quot;&gt;&lt;b&gt;&lt;font style=&quot;font-size: 16px;&quot;&gt;&lt;br&gt;&lt;/font&gt;&lt;/b&gt;&lt;/font&gt;&lt;/div&gt;S3 object storage" style="rounded=0;whiteSpace=wrap;html=1;fillColor=#f5f5f5;fontColor=#333333;strokeColor=#666666;" vertex="1" parent="1">
          <mxGeometry x="850" y="1200" width="230" height="80" as="geometry" />
        </mxCell>
        <mxCell id="V2b90kkNqWV_B73Vr2Vg-42" style="edgeStyle=orthogonalEdgeStyle;rounded=0;orthogonalLoop=1;jettySize=auto;html=1;exitX=1;exitY=0.25;exitDx=0;exitDy=0;entryX=0;entryY=0.75;entryDx=0;entryDy=0;endArrow=none;endFill=0;" edge="1" parent="1" source="V2b90kkNqWV_B73Vr2Vg-8" target="V2b90kkNqWV_B73Vr2Vg-7">
          <mxGeometry relative="1" as="geometry" />
        </mxCell>
        <mxCell id="V2b90kkNqWV_B73Vr2Vg-76" value="store&lt;br&gt;experiement&lt;br&gt;runs" style="edgeLabel;html=1;align=center;verticalAlign=middle;resizable=0;points=[];" vertex="1" connectable="0" parent="V2b90kkNqWV_B73Vr2Vg-42">
          <mxGeometry x="0.0965" y="2" relative="1" as="geometry">
            <mxPoint y="8" as="offset" />
          </mxGeometry>
        </mxCell>
        <mxCell id="V2b90kkNqWV_B73Vr2Vg-43" style="edgeStyle=orthogonalEdgeStyle;rounded=0;orthogonalLoop=1;jettySize=auto;html=1;exitX=1;exitY=0.5;exitDx=0;exitDy=0;entryX=0;entryY=0.25;entryDx=0;entryDy=0;endArrow=none;endFill=0;" edge="1" parent="1" source="V2b90kkNqWV_B73Vr2Vg-8" target="V2b90kkNqWV_B73Vr2Vg-5">
          <mxGeometry relative="1" as="geometry" />
        </mxCell>
        <mxCell id="V2b90kkNqWV_B73Vr2Vg-75" value="store&lt;br&gt;experiment&lt;br&gt;runs" style="edgeLabel;html=1;align=center;verticalAlign=middle;resizable=0;points=[];" vertex="1" connectable="0" parent="V2b90kkNqWV_B73Vr2Vg-43">
          <mxGeometry x="-0.0952" y="-2" relative="1" as="geometry">
            <mxPoint as="offset" />
          </mxGeometry>
        </mxCell>
        <mxCell id="V2b90kkNqWV_B73Vr2Vg-8" value="&lt;div&gt;&lt;font size=&quot;1&quot;&gt;&lt;b&gt;&lt;font style=&quot;font-size: 16px;&quot;&gt;mlflow&lt;/font&gt;&lt;/b&gt;&lt;/font&gt;&lt;/div&gt;&lt;div&gt;&lt;font size=&quot;1&quot;&gt;&lt;b&gt;&lt;font style=&quot;font-size: 16px;&quot;&gt;&lt;br&gt;&lt;/font&gt;&lt;/b&gt;&lt;/font&gt;&lt;/div&gt;Experiment tracking" style="rounded=0;whiteSpace=wrap;html=1;fillColor=#f5f5f5;fontColor=#333333;strokeColor=#666666;" vertex="1" parent="1">
          <mxGeometry x="520" y="1320" width="220" height="80" as="geometry" />
        </mxCell>
        <mxCell id="V2b90kkNqWV_B73Vr2Vg-44" style="edgeStyle=orthogonalEdgeStyle;rounded=0;orthogonalLoop=1;jettySize=auto;html=1;exitX=1;exitY=0.75;exitDx=0;exitDy=0;entryX=0;entryY=0.25;entryDx=0;entryDy=0;endArrow=none;endFill=0;" edge="1" parent="1" source="V2b90kkNqWV_B73Vr2Vg-9" target="V2b90kkNqWV_B73Vr2Vg-7">
          <mxGeometry relative="1" as="geometry" />
        </mxCell>
        <mxCell id="V2b90kkNqWV_B73Vr2Vg-77" value="get / put&lt;br&gt;blobs" style="edgeLabel;html=1;align=center;verticalAlign=middle;resizable=0;points=[];" vertex="1" connectable="0" parent="V2b90kkNqWV_B73Vr2Vg-44">
          <mxGeometry x="-0.0986" relative="1" as="geometry">
            <mxPoint as="offset" />
          </mxGeometry>
        </mxCell>
        <mxCell id="V2b90kkNqWV_B73Vr2Vg-9" value="&lt;div&gt;&lt;font size=&quot;1&quot;&gt;&lt;b style=&quot;font-size: 16px;&quot;&gt;gitlab&lt;/b&gt;&lt;/font&gt;&lt;/div&gt;&lt;br&gt;Collaboration, project management, source code management, pipeline execution" style="rounded=0;whiteSpace=wrap;html=1;fillColor=#f5f5f5;fontColor=#333333;strokeColor=#666666;" vertex="1" parent="1">
          <mxGeometry x="520" y="1050" width="240" height="110" as="geometry" />
        </mxCell>
        <mxCell id="V2b90kkNqWV_B73Vr2Vg-20" value="&lt;div align=&quot;left&quot;&gt;http://pgadmin.mydomain.com:&lt;font color=&quot;#67ab9f&quot;&gt;&lt;b&gt;80&lt;/b&gt;&lt;/font&gt;&lt;/div&gt;" style="text;html=1;strokeColor=default;fillColor=default;align=left;verticalAlign=middle;whiteSpace=wrap;rounded=0;" vertex="1" parent="1">
          <mxGeometry x="1180" y="1640" width="220" height="30" as="geometry" />
        </mxCell>
        <mxCell id="V2b90kkNqWV_B73Vr2Vg-23" value="&lt;div align=&quot;left&quot;&gt;postgres-service.mydomain.com:&lt;font color=&quot;#67ab9f&quot;&gt;&lt;b&gt;5432&lt;/b&gt;&lt;/font&gt;&lt;/div&gt;" style="text;html=1;strokeColor=default;fillColor=default;align=left;verticalAlign=middle;whiteSpace=wrap;rounded=0;" vertex="1" parent="1">
          <mxGeometry x="850" y="1520" width="220" height="30" as="geometry" />
        </mxCell>
        <mxCell id="V2b90kkNqWV_B73Vr2Vg-25" value="&lt;div align=&quot;left&quot;&gt;postgres-data.mydomain.com:&lt;font color=&quot;#67ab9f&quot;&gt;&lt;b&gt;5432&lt;/b&gt;&lt;/font&gt;&lt;/div&gt;" style="text;html=1;strokeColor=default;fillColor=default;align=left;verticalAlign=middle;whiteSpace=wrap;rounded=0;" vertex="1" parent="1">
          <mxGeometry x="850" y="1760" width="220" height="30" as="geometry" />
        </mxCell>
        <mxCell id="V2b90kkNqWV_B73Vr2Vg-26" value="&lt;div&gt;http://minio.mydomain.com:&lt;font color=&quot;#67ab9f&quot;&gt;&lt;b&gt;9000&lt;/b&gt;&lt;/font&gt;&lt;/div&gt;http://minio-console.mydomain.com:&lt;font color=&quot;#67ab9f&quot;&gt;&lt;b&gt;9090&lt;/b&gt;&lt;/font&gt;" style="text;html=1;strokeColor=default;fillColor=default;align=left;verticalAlign=middle;whiteSpace=wrap;rounded=0;" vertex="1" parent="1">
          <mxGeometry x="850" y="1280" width="230" height="40" as="geometry" />
        </mxCell>
        <mxCell id="V2b90kkNqWV_B73Vr2Vg-27" value="&lt;div align=&quot;left&quot;&gt;http://mlflow.mydomain.com:&lt;font color=&quot;#67ab9f&quot;&gt;&lt;b&gt;5000&lt;/b&gt;&lt;/font&gt;&lt;/div&gt;" style="text;html=1;strokeColor=default;fillColor=default;align=left;verticalAlign=middle;whiteSpace=wrap;rounded=0;" vertex="1" parent="1">
          <mxGeometry x="520" y="1400" width="220" height="30" as="geometry" />
        </mxCell>
        <mxCell id="V2b90kkNqWV_B73Vr2Vg-28" value="&lt;div align=&quot;left&quot;&gt;http://gitlab.mydomain.com:&lt;font color=&quot;#67ab9f&quot;&gt;&lt;b&gt;80&lt;/b&gt;&lt;/font&gt;&lt;/div&gt;&lt;div align=&quot;left&quot;&gt;gitlab.mydomain.com:&lt;font color=&quot;#67ab9f&quot;&gt;&lt;b&gt;22&lt;/b&gt;&lt;/font&gt;&lt;/div&gt;&lt;div&gt;&lt;div align=&quot;left&quot;&gt;http(&lt;font color=&quot;#ff0000&quot;&gt;s&lt;/font&gt;)://gitlab-registry.mydomain.com:&lt;font color=&quot;#67ab9f&quot;&gt;&lt;b&gt;5005&lt;/b&gt;&lt;/font&gt;&lt;/div&gt;&lt;/div&gt;" style="text;html=1;strokeColor=default;fillColor=default;align=left;verticalAlign=middle;whiteSpace=wrap;rounded=0;" vertex="1" parent="1">
          <mxGeometry x="520" y="1160" width="240" height="60" as="geometry" />
        </mxCell>
        <mxCell id="V2b90kkNqWV_B73Vr2Vg-29" value="&lt;div align=&quot;left&quot;&gt;http://portainer-service.mydomain.com:&lt;font color=&quot;#67ab9f&quot;&gt;&lt;b&gt;9000&lt;/b&gt;&lt;/font&gt;&lt;/div&gt;" style="text;html=1;strokeColor=default;fillColor=default;align=left;verticalAlign=middle;whiteSpace=wrap;rounded=0;" vertex="1" parent="1">
          <mxGeometry x="1180" y="1145" width="240" height="30" as="geometry" />
        </mxCell>
        <mxCell id="V2b90kkNqWV_B73Vr2Vg-60" style="rounded=0;orthogonalLoop=1;jettySize=auto;html=1;exitX=0;exitY=0.5;exitDx=0;exitDy=0;entryX=1;entryY=0.5;entryDx=0;entryDy=0;endArrow=none;endFill=0;" edge="1" parent="1" source="V2b90kkNqWV_B73Vr2Vg-10" target="V2b90kkNqWV_B73Vr2Vg-55">
          <mxGeometry relative="1" as="geometry" />
        </mxCell>
        <mxCell id="V2b90kkNqWV_B73Vr2Vg-61" style="rounded=0;orthogonalLoop=1;jettySize=auto;html=1;exitX=0;exitY=0.5;exitDx=0;exitDy=0;entryX=1;entryY=0.5;entryDx=0;entryDy=0;endArrow=none;endFill=0;" edge="1" parent="1" source="V2b90kkNqWV_B73Vr2Vg-10" target="V2b90kkNqWV_B73Vr2Vg-56">
          <mxGeometry relative="1" as="geometry" />
        </mxCell>
        <mxCell id="V2b90kkNqWV_B73Vr2Vg-62" style="rounded=0;orthogonalLoop=1;jettySize=auto;html=1;exitX=0;exitY=0.5;exitDx=0;exitDy=0;entryX=1;entryY=0.5;entryDx=0;entryDy=0;endArrow=none;endFill=0;" edge="1" parent="1" source="V2b90kkNqWV_B73Vr2Vg-10" target="V2b90kkNqWV_B73Vr2Vg-57">
          <mxGeometry relative="1" as="geometry" />
        </mxCell>
        <mxCell id="V2b90kkNqWV_B73Vr2Vg-36" value="&lt;div align=&quot;left&quot;&gt;http(&lt;font color=&quot;#ff0000&quot;&gt;s&lt;/font&gt;)://gitlab.mydomain.com&lt;/div&gt;&lt;div align=&quot;left&quot;&gt;gitlab.mydomain.com:&lt;font color=&quot;#67ab9f&quot;&gt;&lt;b&gt;2222&lt;/b&gt;&lt;/font&gt;&lt;/div&gt;&lt;div&gt;&lt;div align=&quot;left&quot;&gt;&lt;font color=&quot;#67ab9f&quot;&gt;&lt;b&gt;&lt;br&gt;&lt;/b&gt;&lt;/font&gt;&lt;/div&gt;&lt;div align=&quot;left&quot;&gt;&lt;div align=&quot;left&quot;&gt;http(&lt;font color=&quot;#ff0000&quot;&gt;s&lt;/font&gt;)://mlflow.mydomain.com&lt;/div&gt;&lt;div align=&quot;left&quot;&gt;&lt;br&gt;&lt;/div&gt;&lt;div align=&quot;left&quot;&gt;&lt;div&gt;&lt;div align=&quot;left&quot;&gt;http(&lt;font color=&quot;#ff0000&quot;&gt;s&lt;/font&gt;)://minio.mydomain.com&lt;/div&gt;&lt;/div&gt;&lt;div align=&quot;left&quot;&gt;http(&lt;font color=&quot;#ff0000&quot;&gt;s&lt;/font&gt;)://minio-console.mydomain.com&lt;/div&gt;&lt;div align=&quot;left&quot;&gt;&lt;br&gt;&lt;/div&gt;&lt;div align=&quot;left&quot;&gt;&lt;div align=&quot;left&quot;&gt;http(&lt;font color=&quot;#ff0000&quot;&gt;s&lt;/font&gt;)://pgadmin.mydomain.com&lt;/div&gt;&lt;div align=&quot;left&quot;&gt;&lt;br&gt;&lt;/div&gt;&lt;div align=&quot;left&quot;&gt;&lt;div align=&quot;left&quot;&gt;postgres-service.mydomain.com:&lt;font color=&quot;#67ab9f&quot;&gt;&lt;b&gt;54321&lt;/b&gt;&lt;/font&gt;&lt;/div&gt;&lt;div align=&quot;left&quot;&gt;&lt;div align=&quot;left&quot;&gt;postgres-data.mydomain.com:&lt;font color=&quot;#67ab9f&quot;&gt;&lt;b&gt;54322&lt;/b&gt;&lt;/font&gt;&lt;/div&gt;&lt;/div&gt;&lt;/div&gt;&lt;/div&gt;&lt;/div&gt;&lt;/div&gt;&lt;/div&gt;&lt;div&gt;&lt;br&gt;&lt;/div&gt;&lt;div&gt;&lt;div align=&quot;left&quot;&gt;http(&lt;font color=&quot;#ff0000&quot;&gt;s&lt;/font&gt;)://portainer-service.mydomain.com&lt;/div&gt;&lt;/div&gt;" style="text;html=1;strokeColor=default;fillColor=default;align=left;verticalAlign=middle;whiteSpace=wrap;rounded=0;" vertex="1" parent="1">
          <mxGeometry x="180" y="1399" width="240" height="220" as="geometry" />
        </mxCell>
        <mxCell id="V2b90kkNqWV_B73Vr2Vg-63" style="rounded=0;orthogonalLoop=1;jettySize=auto;html=1;exitX=0;exitY=0.5;exitDx=0;exitDy=0;entryX=1;entryY=0.5;entryDx=0;entryDy=0;endArrow=none;endFill=0;" edge="1" parent="1" source="V2b90kkNqWV_B73Vr2Vg-10" target="V2b90kkNqWV_B73Vr2Vg-58">
          <mxGeometry relative="1" as="geometry" />
        </mxCell>
        <mxCell id="V2b90kkNqWV_B73Vr2Vg-10" value="&lt;div&gt;&lt;b&gt;&lt;font style=&quot;font-size: 16px;&quot;&gt;nginx-proxy&lt;/font&gt;&lt;/b&gt;&lt;/div&gt;&lt;div&gt;&lt;b&gt;&lt;font style=&quot;font-size: 16px;&quot;&gt;&lt;br&gt;&lt;/font&gt;&lt;/b&gt;&lt;/div&gt;Nginx reverse proxy" style="rounded=0;whiteSpace=wrap;html=1;fillColor=#f5f5f5;fontColor=#333333;strokeColor=#666666;" vertex="1" parent="1">
          <mxGeometry x="180" y="1319" width="240" height="80" as="geometry" />
        </mxCell>
        <mxCell id="V2b90kkNqWV_B73Vr2Vg-52" style="edgeStyle=orthogonalEdgeStyle;rounded=0;orthogonalLoop=1;jettySize=auto;html=1;exitX=1;exitY=0.5;exitDx=0;exitDy=0;entryX=0.003;entryY=0.674;entryDx=0;entryDy=0;entryPerimeter=0;endArrow=none;endFill=0;" edge="1" parent="1" source="V2b90kkNqWV_B73Vr2Vg-38">
          <mxGeometry relative="1" as="geometry">
            <mxPoint x="520.72" y="1203.44" as="targetPoint" />
          </mxGeometry>
        </mxCell>
        <mxCell id="V2b90kkNqWV_B73Vr2Vg-78" value="externally&lt;br&gt;accessible&lt;br&gt;docker&lt;br&gt;registry" style="edgeLabel;html=1;align=center;verticalAlign=middle;resizable=0;points=[];" vertex="1" connectable="0" parent="V2b90kkNqWV_B73Vr2Vg-52">
          <mxGeometry x="-0.266" y="1" relative="1" as="geometry">
            <mxPoint x="13" y="1" as="offset" />
          </mxGeometry>
        </mxCell>
        <mxCell id="V2b90kkNqWV_B73Vr2Vg-38" value="&lt;div align=&quot;left&quot;&gt;http(&lt;font color=&quot;#ff0000&quot;&gt;s&lt;/font&gt;)://gitlab-registry.mydomain.com:&lt;font color=&quot;#67ab9f&quot;&gt;&lt;b&gt;5005&lt;/b&gt;&lt;/font&gt;&lt;/div&gt;" style="text;html=1;strokeColor=default;fillColor=default;align=left;verticalAlign=middle;whiteSpace=wrap;rounded=0;" vertex="1" parent="1">
          <mxGeometry x="180" y="1190" width="240" height="27" as="geometry" />
        </mxCell>
        <mxCell id="V2b90kkNqWV_B73Vr2Vg-46" style="rounded=0;orthogonalLoop=1;jettySize=auto;html=1;exitX=1;exitY=0.5;exitDx=0;exitDy=0;entryX=0;entryY=0.5;entryDx=0;entryDy=0;strokeColor=#A6A5A2;dashed=1;endArrow=none;endFill=0;" edge="1" parent="1" source="V2b90kkNqWV_B73Vr2Vg-10" target="V2b90kkNqWV_B73Vr2Vg-8">
          <mxGeometry relative="1" as="geometry">
            <mxPoint x="450" y="1790" as="sourcePoint" />
            <mxPoint x="550" y="1475" as="targetPoint" />
          </mxGeometry>
        </mxCell>
        <mxCell id="V2b90kkNqWV_B73Vr2Vg-80" style="edgeStyle=orthogonalEdgeStyle;rounded=0;orthogonalLoop=1;jettySize=auto;html=1;endArrow=none;endFill=0;" edge="1" parent="1" source="V2b90kkNqWV_B73Vr2Vg-53" target="V2b90kkNqWV_B73Vr2Vg-3">
          <mxGeometry relative="1" as="geometry">
            <Array as="points">
              <mxPoint x="1450" y="1105" />
              <mxPoint x="1450" y="1105" />
            </Array>
          </mxGeometry>
        </mxCell>
        <mxCell id="V2b90kkNqWV_B73Vr2Vg-81" value="manage docker&lt;br&gt;through the&lt;br&gt;docker.sock" style="edgeLabel;html=1;align=center;verticalAlign=middle;resizable=0;points=[];" vertex="1" connectable="0" parent="V2b90kkNqWV_B73Vr2Vg-80">
          <mxGeometry x="0.2133" y="2" relative="1" as="geometry">
            <mxPoint x="9" y="-2" as="offset" />
          </mxGeometry>
        </mxCell>
        <mxCell id="V2b90kkNqWV_B73Vr2Vg-53" value="&lt;div&gt;Docker socket:&lt;/div&gt;&lt;div&gt;&lt;br&gt;&lt;/div&gt;&lt;div&gt;/var/run/docker.sock&lt;/div&gt;" style="text;html=1;strokeColor=default;fillColor=default;align=center;verticalAlign=middle;whiteSpace=wrap;rounded=0;" vertex="1" parent="1">
          <mxGeometry x="1550" y="1080" width="140" height="50" as="geometry" />
        </mxCell>
        <mxCell id="V2b90kkNqWV_B73Vr2Vg-54" value="&lt;div style=&quot;color: rgb(0, 0, 0); background-color: rgb(255, 255, 255); font-family: &amp;quot;Droid Sans Mono&amp;quot;, &amp;quot;monospace&amp;quot;, monospace; font-weight: normal; font-size: 14px; line-height: 19px;&quot;&gt;&lt;div&gt;data-analysis-platform_service docker network&lt;br&gt;&lt;/div&gt;&lt;/div&gt;" style="text;html=1;strokeColor=default;fillColor=default;align=center;verticalAlign=middle;whiteSpace=wrap;rounded=0;" vertex="1" parent="1">
          <mxGeometry x="740" y="960" width="310" height="40" as="geometry" />
        </mxCell>
        <mxCell id="V2b90kkNqWV_B73Vr2Vg-55" value="443 / 80" style="text;html=1;strokeColor=default;fillColor=default;align=center;verticalAlign=middle;whiteSpace=wrap;rounded=0;" vertex="1" parent="1">
          <mxGeometry x="40" y="1303" width="80" height="30" as="geometry" />
        </mxCell>
        <mxCell id="V2b90kkNqWV_B73Vr2Vg-56" value="54321" style="text;html=1;strokeColor=default;fillColor=default;align=center;verticalAlign=middle;whiteSpace=wrap;rounded=0;" vertex="1" parent="1">
          <mxGeometry x="40" y="1333" width="80" height="30" as="geometry" />
        </mxCell>
        <mxCell id="V2b90kkNqWV_B73Vr2Vg-57" value="54322" style="text;html=1;strokeColor=default;fillColor=default;align=center;verticalAlign=middle;whiteSpace=wrap;rounded=0;" vertex="1" parent="1">
          <mxGeometry x="40" y="1363" width="80" height="30" as="geometry" />
        </mxCell>
        <mxCell id="V2b90kkNqWV_B73Vr2Vg-58" value="2222" style="text;html=1;strokeColor=default;fillColor=default;align=center;verticalAlign=middle;whiteSpace=wrap;rounded=0;" vertex="1" parent="1">
          <mxGeometry x="40" y="1393" width="80" height="30" as="geometry" />
        </mxCell>
        <mxCell id="V2b90kkNqWV_B73Vr2Vg-64" style="edgeStyle=orthogonalEdgeStyle;rounded=0;orthogonalLoop=1;jettySize=auto;html=1;exitX=1;exitY=0.5;exitDx=0;exitDy=0;entryX=0;entryY=0.5;entryDx=0;entryDy=0;endArrow=none;endFill=0;" edge="1" parent="1" source="V2b90kkNqWV_B73Vr2Vg-59" target="V2b90kkNqWV_B73Vr2Vg-38">
          <mxGeometry relative="1" as="geometry" />
        </mxCell>
        <mxCell id="V2b90kkNqWV_B73Vr2Vg-234" style="edgeStyle=orthogonalEdgeStyle;rounded=0;orthogonalLoop=1;jettySize=auto;html=1;exitX=0;exitY=0.5;exitDx=0;exitDy=0;endArrow=none;endFill=0;" edge="1" parent="1" source="V2b90kkNqWV_B73Vr2Vg-59">
          <mxGeometry relative="1" as="geometry">
            <mxPoint x="-50" y="1370" as="targetPoint" />
          </mxGeometry>
        </mxCell>
        <mxCell id="V2b90kkNqWV_B73Vr2Vg-59" value="5005" style="text;html=1;strokeColor=default;fillColor=default;align=center;verticalAlign=middle;whiteSpace=wrap;rounded=0;" vertex="1" parent="1">
          <mxGeometry x="40" y="1188.5" width="80" height="30" as="geometry" />
        </mxCell>
        <mxCell id="V2b90kkNqWV_B73Vr2Vg-65" value="&lt;b&gt;external ports:&lt;/b&gt;" style="text;html=1;strokeColor=none;fillColor=none;align=center;verticalAlign=middle;whiteSpace=wrap;rounded=0;" vertex="1" parent="1">
          <mxGeometry x="40" y="1154" width="90" height="30" as="geometry" />
        </mxCell>
        <mxCell id="V2b90kkNqWV_B73Vr2Vg-66" value="&lt;div align=&quot;left&quot;&gt;http://pgadmin:&lt;font color=&quot;#67ab9f&quot;&gt;&lt;b&gt;80&lt;/b&gt;&lt;/font&gt;&lt;/div&gt;" style="text;html=1;strokeColor=default;fillColor=default;align=left;verticalAlign=middle;whiteSpace=wrap;rounded=0;" vertex="1" parent="1">
          <mxGeometry x="1180" y="1670" width="220" height="30" as="geometry" />
        </mxCell>
        <mxCell id="V2b90kkNqWV_B73Vr2Vg-67" value="&lt;div align=&quot;left&quot;&gt;http://portainer-service:&lt;font color=&quot;#67ab9f&quot;&gt;&lt;b&gt;9000&lt;/b&gt;&lt;/font&gt;&lt;/div&gt;" style="text;html=1;strokeColor=default;fillColor=default;align=left;verticalAlign=middle;whiteSpace=wrap;rounded=0;" vertex="1" parent="1">
          <mxGeometry x="1180" y="1175" width="240" height="30" as="geometry" />
        </mxCell>
        <mxCell id="V2b90kkNqWV_B73Vr2Vg-68" value="&lt;div align=&quot;left&quot;&gt;postgres-data:&lt;font color=&quot;#67ab9f&quot;&gt;&lt;b&gt;5432&lt;/b&gt;&lt;/font&gt;&lt;/div&gt;" style="text;html=1;strokeColor=default;fillColor=default;align=left;verticalAlign=middle;whiteSpace=wrap;rounded=0;" vertex="1" parent="1">
          <mxGeometry x="850" y="1790" width="220" height="30" as="geometry" />
        </mxCell>
        <mxCell id="V2b90kkNqWV_B73Vr2Vg-69" value="&lt;div align=&quot;left&quot;&gt;postgres-service:&lt;font color=&quot;#67ab9f&quot;&gt;&lt;b&gt;5432&lt;/b&gt;&lt;/font&gt;&lt;/div&gt;" style="text;html=1;strokeColor=default;fillColor=default;align=left;verticalAlign=middle;whiteSpace=wrap;rounded=0;" vertex="1" parent="1">
          <mxGeometry x="850.01" y="1550" width="220" height="30" as="geometry" />
        </mxCell>
        <mxCell id="V2b90kkNqWV_B73Vr2Vg-70" value="&lt;div&gt;http://minio&lt;font color=&quot;#67ab9f&quot;&gt;&lt;b&gt;:9000&lt;/b&gt;&lt;/font&gt;&lt;/div&gt;http://minio-console:&lt;font color=&quot;#67ab9f&quot;&gt;&lt;b&gt;9090&lt;/b&gt;&lt;/font&gt;" style="text;html=1;strokeColor=default;fillColor=default;align=left;verticalAlign=middle;whiteSpace=wrap;rounded=0;" vertex="1" parent="1">
          <mxGeometry x="850" y="1320" width="230" height="40" as="geometry" />
        </mxCell>
        <mxCell id="V2b90kkNqWV_B73Vr2Vg-71" value="&lt;div align=&quot;left&quot;&gt;http://mlflow:&lt;font color=&quot;#67ab9f&quot;&gt;&lt;b&gt;5000&lt;/b&gt;&lt;/font&gt;&lt;/div&gt;" style="text;html=1;strokeColor=default;fillColor=default;align=left;verticalAlign=middle;whiteSpace=wrap;rounded=0;" vertex="1" parent="1">
          <mxGeometry x="520" y="1430" width="220" height="30" as="geometry" />
        </mxCell>
        <mxCell id="V2b90kkNqWV_B73Vr2Vg-72" value="&lt;div align=&quot;left&quot;&gt;http://gitlab:&lt;font color=&quot;#67ab9f&quot;&gt;&lt;b&gt;80&lt;/b&gt;&lt;/font&gt;&lt;/div&gt;&lt;div align=&quot;left&quot;&gt;gitlab:&lt;font color=&quot;#67ab9f&quot;&gt;&lt;b&gt;22&lt;/b&gt;&lt;/font&gt;&lt;/div&gt;&lt;div&gt;&lt;div align=&quot;left&quot;&gt;http(&lt;font color=&quot;#ff0000&quot;&gt;s&lt;/font&gt;)://gitlab-registry:&lt;font color=&quot;#67ab9f&quot;&gt;&lt;b&gt;5005&lt;/b&gt;&lt;/font&gt;&lt;/div&gt;&lt;/div&gt;" style="text;html=1;strokeColor=default;fillColor=default;align=left;verticalAlign=middle;whiteSpace=wrap;rounded=0;" vertex="1" parent="1">
          <mxGeometry x="520" y="1220" width="240" height="60" as="geometry" />
        </mxCell>
        <mxCell id="V2b90kkNqWV_B73Vr2Vg-82" value="" style="rounded=1;whiteSpace=wrap;html=1;fillColor=none;strokeWidth=3;" vertex="1" parent="1">
          <mxGeometry x="565" y="1960" width="660" height="220" as="geometry" />
        </mxCell>
        <mxCell id="V2b90kkNqWV_B73Vr2Vg-83" value="/var/opt/data_analysis_platform ({{ path_base }})&lt;br&gt;persistent docker file storage (mounts)" style="text;html=1;strokeColor=default;fillColor=default;align=center;verticalAlign=middle;whiteSpace=wrap;rounded=0;" vertex="1" parent="1">
          <mxGeometry x="740" y="1940" width="310" height="40" as="geometry" />
        </mxCell>
        <mxCell id="V2b90kkNqWV_B73Vr2Vg-86" value="" style="group" vertex="1" connectable="0" parent="1">
          <mxGeometry x="605" y="2010" width="265" height="40" as="geometry" />
        </mxCell>
        <mxCell id="V2b90kkNqWV_B73Vr2Vg-84" value="data" style="sketch=0;outlineConnect=0;fontColor=#232F3E;gradientColor=none;fillColor=#232F3D;strokeColor=none;dashed=0;verticalLabelPosition=bottom;verticalAlign=top;align=center;html=1;fontSize=12;fontStyle=0;aspect=fixed;pointerEvents=1;shape=mxgraph.aws4.folder;" vertex="1" parent="V2b90kkNqWV_B73Vr2Vg-86">
          <mxGeometry width="43.94" height="40" as="geometry" />
        </mxCell>
        <mxCell id="V2b90kkNqWV_B73Vr2Vg-85" value="container persistent storage" style="text;html=1;strokeColor=default;fillColor=default;align=center;verticalAlign=middle;whiteSpace=wrap;rounded=0;" vertex="1" parent="V2b90kkNqWV_B73Vr2Vg-86">
          <mxGeometry x="60" y="5" width="175" height="30" as="geometry" />
        </mxCell>
        <mxCell id="V2b90kkNqWV_B73Vr2Vg-90" value="" style="group" vertex="1" connectable="0" parent="V2b90kkNqWV_B73Vr2Vg-86">
          <mxGeometry x="340" width="235" height="40" as="geometry" />
        </mxCell>
        <mxCell id="V2b90kkNqWV_B73Vr2Vg-91" value="provision" style="sketch=0;outlineConnect=0;fontColor=#232F3E;gradientColor=none;fillColor=#232F3D;strokeColor=none;dashed=0;verticalLabelPosition=bottom;verticalAlign=top;align=center;html=1;fontSize=12;fontStyle=0;aspect=fixed;pointerEvents=1;shape=mxgraph.aws4.folder;" vertex="1" parent="V2b90kkNqWV_B73Vr2Vg-90">
          <mxGeometry width="43.94" height="40" as="geometry" />
        </mxCell>
        <mxCell id="V2b90kkNqWV_B73Vr2Vg-92" value="provisioning files" style="text;html=1;strokeColor=default;fillColor=default;align=center;verticalAlign=middle;whiteSpace=wrap;rounded=0;" vertex="1" parent="V2b90kkNqWV_B73Vr2Vg-90">
          <mxGeometry x="60" y="5" width="175" height="30" as="geometry" />
        </mxCell>
        <mxCell id="V2b90kkNqWV_B73Vr2Vg-87" value="" style="group" vertex="1" connectable="0" parent="1">
          <mxGeometry x="605" y="2090" width="235" height="40" as="geometry" />
        </mxCell>
        <mxCell id="V2b90kkNqWV_B73Vr2Vg-88" value="secrets" style="sketch=0;outlineConnect=0;fontColor=#232F3E;gradientColor=none;fillColor=#232F3D;strokeColor=none;dashed=0;verticalLabelPosition=bottom;verticalAlign=top;align=center;html=1;fontSize=12;fontStyle=0;aspect=fixed;pointerEvents=1;shape=mxgraph.aws4.folder;" vertex="1" parent="V2b90kkNqWV_B73Vr2Vg-87">
          <mxGeometry width="43.94" height="40" as="geometry" />
        </mxCell>
        <mxCell id="V2b90kkNqWV_B73Vr2Vg-89" value="secrets used in containers" style="text;html=1;strokeColor=default;fillColor=default;align=center;verticalAlign=middle;whiteSpace=wrap;rounded=0;" vertex="1" parent="V2b90kkNqWV_B73Vr2Vg-87">
          <mxGeometry x="60" y="5" width="175" height="30" as="geometry" />
        </mxCell>
        <mxCell id="V2b90kkNqWV_B73Vr2Vg-99" value="" style="group" vertex="1" connectable="0" parent="1">
          <mxGeometry x="945" y="2090" width="235" height="40" as="geometry" />
        </mxCell>
        <mxCell id="V2b90kkNqWV_B73Vr2Vg-100" value="..." style="sketch=0;outlineConnect=0;fontColor=#232F3E;gradientColor=none;fillColor=#232F3D;strokeColor=none;dashed=0;verticalLabelPosition=bottom;verticalAlign=top;align=center;html=1;fontSize=12;fontStyle=0;aspect=fixed;pointerEvents=1;shape=mxgraph.aws4.folder;" vertex="1" parent="V2b90kkNqWV_B73Vr2Vg-99">
          <mxGeometry width="43.94" height="40" as="geometry" />
        </mxCell>
        <mxCell id="V2b90kkNqWV_B73Vr2Vg-101" value="other files" style="text;html=1;strokeColor=default;fillColor=default;align=center;verticalAlign=middle;whiteSpace=wrap;rounded=0;" vertex="1" parent="V2b90kkNqWV_B73Vr2Vg-99">
          <mxGeometry x="60" y="5" width="175" height="30" as="geometry" />
        </mxCell>
        <mxCell id="V2b90kkNqWV_B73Vr2Vg-105" value="&lt;font size=&quot;1&quot;&gt;&lt;b style=&quot;font-size: 18px;&quot;&gt;service-host&lt;/b&gt;&lt;/font&gt;" style="text;html=1;strokeColor=default;fillColor=default;align=center;verticalAlign=middle;whiteSpace=wrap;rounded=0;" vertex="1" parent="1">
          <mxGeometry x="798.75" y="860" width="192.5" height="60" as="geometry" />
        </mxCell>
        <mxCell id="V2b90kkNqWV_B73Vr2Vg-106" value="" style="rounded=0;whiteSpace=wrap;html=1;fillColor=#E8FCE7;strokeColor=#82b366;" vertex="1" parent="1">
          <mxGeometry x="249" y="2310" width="1280" height="1136" as="geometry" />
        </mxCell>
        <mxCell id="V2b90kkNqWV_B73Vr2Vg-107" value="" style="rounded=1;whiteSpace=wrap;html=1;fillColor=none;strokeWidth=3;" vertex="1" parent="1">
          <mxGeometry x="739" y="2452" width="510" height="634" as="geometry" />
        </mxCell>
        <mxCell id="V2b90kkNqWV_B73Vr2Vg-113" style="rounded=0;orthogonalLoop=1;jettySize=auto;html=1;exitX=1;exitY=0.5;exitDx=0;exitDy=0;entryX=0;entryY=0.75;entryDx=0;entryDy=0;strokeColor=#A6A5A2;dashed=1;endArrow=none;endFill=0;" edge="1" source="V2b90kkNqWV_B73Vr2Vg-150" target="V2b90kkNqWV_B73Vr2Vg-114" parent="1">
          <mxGeometry relative="1" as="geometry">
            <mxPoint x="499" y="2952" as="sourcePoint" />
            <mxPoint x="599" y="2637" as="targetPoint" />
          </mxGeometry>
        </mxCell>
        <mxCell id="V2b90kkNqWV_B73Vr2Vg-114" value="&lt;div&gt;&lt;font size=&quot;1&quot;&gt;&lt;b&gt;&lt;font style=&quot;font-size: 16px;&quot;&gt;portainer&lt;/font&gt;&lt;/b&gt;&lt;/font&gt;&lt;/div&gt;&lt;div&gt;&lt;font size=&quot;1&quot;&gt;&lt;b&gt;&lt;font style=&quot;font-size: 16px;&quot;&gt;&lt;br&gt;&lt;/font&gt;&lt;/b&gt;&lt;/font&gt;&lt;/div&gt;Docker management" style="rounded=0;whiteSpace=wrap;html=1;fillColor=#f5f5f5;fontColor=#333333;strokeColor=#666666;" vertex="1" parent="1">
          <mxGeometry x="925" y="2537" width="240" height="80" as="geometry" />
        </mxCell>
        <mxCell id="V2b90kkNqWV_B73Vr2Vg-143" value="&lt;div align=&quot;left&quot;&gt;http://portainer-runner.mydomain.com:&lt;font color=&quot;#67ab9f&quot;&gt;&lt;b&gt;9000&lt;/b&gt;&lt;/font&gt;&lt;/div&gt;" style="text;html=1;strokeColor=default;fillColor=default;align=left;verticalAlign=middle;whiteSpace=wrap;rounded=0;" vertex="1" parent="1">
          <mxGeometry x="925" y="2617" width="240" height="30" as="geometry" />
        </mxCell>
        <mxCell id="V2b90kkNqWV_B73Vr2Vg-144" style="rounded=0;orthogonalLoop=1;jettySize=auto;html=1;exitX=0;exitY=0.5;exitDx=0;exitDy=0;entryX=1;entryY=0.5;entryDx=0;entryDy=0;endArrow=none;endFill=0;" edge="1" source="V2b90kkNqWV_B73Vr2Vg-150" target="V2b90kkNqWV_B73Vr2Vg-159" parent="1">
          <mxGeometry relative="1" as="geometry" />
        </mxCell>
        <mxCell id="V2b90kkNqWV_B73Vr2Vg-147" value="&lt;div align=&quot;left&quot;&gt;http(&lt;font color=&quot;#ff0000&quot;&gt;s&lt;/font&gt;)://portainer-runner.mydomain.com&lt;/div&gt;" style="text;html=1;strokeColor=default;fillColor=default;align=left;verticalAlign=middle;whiteSpace=wrap;rounded=0;" vertex="1" parent="1">
          <mxGeometry x="619" y="2786" width="240" height="35" as="geometry" />
        </mxCell>
        <mxCell id="V2b90kkNqWV_B73Vr2Vg-150" value="&lt;div&gt;&lt;b&gt;&lt;font style=&quot;font-size: 16px;&quot;&gt;nginx-proxy&lt;/font&gt;&lt;/b&gt;&lt;/div&gt;&lt;div&gt;&lt;b&gt;&lt;font style=&quot;font-size: 16px;&quot;&gt;&lt;br&gt;&lt;/font&gt;&lt;/b&gt;&lt;/div&gt;Nginx reverse proxy" style="rounded=0;whiteSpace=wrap;html=1;fillColor=#f5f5f5;fontColor=#333333;strokeColor=#666666;" vertex="1" parent="1">
          <mxGeometry x="619" y="2706" width="240" height="80" as="geometry" />
        </mxCell>
        <mxCell id="V2b90kkNqWV_B73Vr2Vg-155" style="edgeStyle=orthogonalEdgeStyle;rounded=0;orthogonalLoop=1;jettySize=auto;html=1;endArrow=none;endFill=0;" edge="1" source="V2b90kkNqWV_B73Vr2Vg-157" target="V2b90kkNqWV_B73Vr2Vg-114" parent="1">
          <mxGeometry relative="1" as="geometry">
            <Array as="points">
              <mxPoint x="1469" y="2577" />
              <mxPoint x="1469" y="2577" />
            </Array>
          </mxGeometry>
        </mxCell>
        <mxCell id="V2b90kkNqWV_B73Vr2Vg-156" value="manage docker&lt;br&gt;through the&lt;br&gt;docker.sock" style="edgeLabel;html=1;align=center;verticalAlign=middle;resizable=0;points=[];" vertex="1" connectable="0" parent="V2b90kkNqWV_B73Vr2Vg-155">
          <mxGeometry x="0.2133" y="2" relative="1" as="geometry">
            <mxPoint x="9" y="-2" as="offset" />
          </mxGeometry>
        </mxCell>
        <mxCell id="V2b90kkNqWV_B73Vr2Vg-157" value="&lt;div&gt;Docker socket:&lt;/div&gt;&lt;div&gt;&lt;br&gt;&lt;/div&gt;&lt;div&gt;/var/run/docker.sock&lt;/div&gt;" style="text;html=1;strokeColor=default;fillColor=default;align=center;verticalAlign=middle;whiteSpace=wrap;rounded=0;" vertex="1" parent="1">
          <mxGeometry x="1343" y="2552" width="140" height="50" as="geometry" />
        </mxCell>
        <mxCell id="V2b90kkNqWV_B73Vr2Vg-158" value="&lt;div style=&quot;color: rgb(0, 0, 0); background-color: rgb(255, 255, 255); font-family: &amp;quot;Droid Sans Mono&amp;quot;, &amp;quot;monospace&amp;quot;, monospace; font-weight: normal; font-size: 14px; line-height: 19px;&quot;&gt;&lt;div&gt;data-analysis-platform_runner&lt;/div&gt;&lt;div&gt;docker network&lt;br&gt;&lt;/div&gt;&lt;/div&gt;" style="text;html=1;strokeColor=default;fillColor=default;align=center;verticalAlign=middle;whiteSpace=wrap;rounded=0;" vertex="1" parent="1">
          <mxGeometry x="839" y="2432" width="310" height="40" as="geometry" />
        </mxCell>
        <mxCell id="V2b90kkNqWV_B73Vr2Vg-159" value="4433 / 8080" style="text;html=1;strokeColor=default;fillColor=default;align=center;verticalAlign=middle;whiteSpace=wrap;rounded=0;" vertex="1" parent="1">
          <mxGeometry x="210" y="2731" width="80" height="30" as="geometry" />
        </mxCell>
        <mxCell id="V2b90kkNqWV_B73Vr2Vg-165" value="&lt;b&gt;external ports:&lt;/b&gt;" style="text;html=1;strokeColor=none;fillColor=none;align=center;verticalAlign=middle;whiteSpace=wrap;rounded=0;" vertex="1" parent="1">
          <mxGeometry x="205" y="2700" width="90" height="30" as="geometry" />
        </mxCell>
        <mxCell id="V2b90kkNqWV_B73Vr2Vg-167" value="&lt;div align=&quot;left&quot;&gt;http://portainer-runner:&lt;font color=&quot;#67ab9f&quot;&gt;&lt;b&gt;9000&lt;/b&gt;&lt;/font&gt;&lt;/div&gt;" style="text;html=1;strokeColor=default;fillColor=default;align=left;verticalAlign=middle;whiteSpace=wrap;rounded=0;" vertex="1" parent="1">
          <mxGeometry x="925" y="2647" width="240" height="30" as="geometry" />
        </mxCell>
        <mxCell id="V2b90kkNqWV_B73Vr2Vg-173" value="" style="rounded=1;whiteSpace=wrap;html=1;fillColor=none;strokeWidth=3;" vertex="1" parent="1">
          <mxGeometry x="660" y="3168.5" width="660" height="220" as="geometry" />
        </mxCell>
        <mxCell id="V2b90kkNqWV_B73Vr2Vg-174" value="/var/opt/data_analysis_platform ({{ path_base }})&lt;br&gt;persistent docker file storage (mounts)" style="text;html=1;strokeColor=default;fillColor=default;align=center;verticalAlign=middle;whiteSpace=wrap;rounded=0;" vertex="1" parent="1">
          <mxGeometry x="835" y="3148.5" width="310" height="40" as="geometry" />
        </mxCell>
        <mxCell id="V2b90kkNqWV_B73Vr2Vg-175" value="" style="group" vertex="1" connectable="0" parent="1">
          <mxGeometry x="700" y="3218.5" width="265" height="40" as="geometry" />
        </mxCell>
        <mxCell id="V2b90kkNqWV_B73Vr2Vg-176" value="data" style="sketch=0;outlineConnect=0;fontColor=#232F3E;gradientColor=none;fillColor=#232F3D;strokeColor=none;dashed=0;verticalLabelPosition=bottom;verticalAlign=top;align=center;html=1;fontSize=12;fontStyle=0;aspect=fixed;pointerEvents=1;shape=mxgraph.aws4.folder;" vertex="1" parent="V2b90kkNqWV_B73Vr2Vg-175">
          <mxGeometry width="43.94" height="40" as="geometry" />
        </mxCell>
        <mxCell id="V2b90kkNqWV_B73Vr2Vg-177" value="container persistent storage" style="text;html=1;strokeColor=default;fillColor=default;align=center;verticalAlign=middle;whiteSpace=wrap;rounded=0;" vertex="1" parent="V2b90kkNqWV_B73Vr2Vg-175">
          <mxGeometry x="60" y="5" width="175" height="30" as="geometry" />
        </mxCell>
        <mxCell id="V2b90kkNqWV_B73Vr2Vg-178" value="" style="group" vertex="1" connectable="0" parent="V2b90kkNqWV_B73Vr2Vg-175">
          <mxGeometry x="340" width="235" height="40" as="geometry" />
        </mxCell>
        <mxCell id="V2b90kkNqWV_B73Vr2Vg-179" value="provision" style="sketch=0;outlineConnect=0;fontColor=#232F3E;gradientColor=none;fillColor=#232F3D;strokeColor=none;dashed=0;verticalLabelPosition=bottom;verticalAlign=top;align=center;html=1;fontSize=12;fontStyle=0;aspect=fixed;pointerEvents=1;shape=mxgraph.aws4.folder;" vertex="1" parent="V2b90kkNqWV_B73Vr2Vg-178">
          <mxGeometry width="43.94" height="40" as="geometry" />
        </mxCell>
        <mxCell id="V2b90kkNqWV_B73Vr2Vg-180" value="provisioning files" style="text;html=1;strokeColor=default;fillColor=default;align=center;verticalAlign=middle;whiteSpace=wrap;rounded=0;" vertex="1" parent="V2b90kkNqWV_B73Vr2Vg-178">
          <mxGeometry x="60" y="5" width="175" height="30" as="geometry" />
        </mxCell>
        <mxCell id="V2b90kkNqWV_B73Vr2Vg-181" value="" style="group" vertex="1" connectable="0" parent="1">
          <mxGeometry x="700" y="3298.5" width="235" height="40" as="geometry" />
        </mxCell>
        <mxCell id="V2b90kkNqWV_B73Vr2Vg-182" value="secrets" style="sketch=0;outlineConnect=0;fontColor=#232F3E;gradientColor=none;fillColor=#232F3D;strokeColor=none;dashed=0;verticalLabelPosition=bottom;verticalAlign=top;align=center;html=1;fontSize=12;fontStyle=0;aspect=fixed;pointerEvents=1;shape=mxgraph.aws4.folder;" vertex="1" parent="V2b90kkNqWV_B73Vr2Vg-181">
          <mxGeometry width="43.94" height="40" as="geometry" />
        </mxCell>
        <mxCell id="V2b90kkNqWV_B73Vr2Vg-183" value="secrets used in containers" style="text;html=1;strokeColor=default;fillColor=default;align=center;verticalAlign=middle;whiteSpace=wrap;rounded=0;" vertex="1" parent="V2b90kkNqWV_B73Vr2Vg-181">
          <mxGeometry x="60" y="5" width="175" height="30" as="geometry" />
        </mxCell>
        <mxCell id="V2b90kkNqWV_B73Vr2Vg-184" value="" style="group" vertex="1" connectable="0" parent="1">
          <mxGeometry x="1040" y="3298.5" width="235" height="40" as="geometry" />
        </mxCell>
        <mxCell id="V2b90kkNqWV_B73Vr2Vg-185" value="..." style="sketch=0;outlineConnect=0;fontColor=#232F3E;gradientColor=none;fillColor=#232F3D;strokeColor=none;dashed=0;verticalLabelPosition=bottom;verticalAlign=top;align=center;html=1;fontSize=12;fontStyle=0;aspect=fixed;pointerEvents=1;shape=mxgraph.aws4.folder;" vertex="1" parent="V2b90kkNqWV_B73Vr2Vg-184">
          <mxGeometry width="43.94" height="40" as="geometry" />
        </mxCell>
        <mxCell id="V2b90kkNqWV_B73Vr2Vg-186" value="other files" style="text;html=1;strokeColor=default;fillColor=default;align=center;verticalAlign=middle;whiteSpace=wrap;rounded=0;" vertex="1" parent="V2b90kkNqWV_B73Vr2Vg-184">
          <mxGeometry x="60" y="5" width="175" height="30" as="geometry" />
        </mxCell>
        <mxCell id="V2b90kkNqWV_B73Vr2Vg-188" value="&lt;font style=&quot;font-size: 18px;&quot;&gt;&lt;b style=&quot;font-size: 18px;&quot;&gt;runner-&lt;/b&gt;&lt;b&gt;host&lt;/b&gt;&lt;b&gt; (1..n)&lt;/b&gt;&lt;/font&gt;" style="text;html=1;strokeColor=default;fillColor=default;align=center;verticalAlign=middle;whiteSpace=wrap;rounded=0;" vertex="1" parent="1">
          <mxGeometry x="792.75" y="2336" width="192.5" height="60" as="geometry" />
        </mxCell>
        <mxCell id="V2b90kkNqWV_B73Vr2Vg-207" value="" style="group" vertex="1" connectable="0" parent="1">
          <mxGeometry x="369" y="2476" width="240" height="159" as="geometry" />
        </mxCell>
        <mxCell id="V2b90kkNqWV_B73Vr2Vg-204" value="&lt;div&gt;&lt;font size=&quot;1&quot;&gt;&lt;b style=&quot;font-size: 16px;&quot;&gt;development environment (0..n)&lt;br&gt;&lt;/b&gt;&lt;/font&gt;&lt;/div&gt;&lt;br&gt;&lt;div&gt;A docker remote development &lt;br&gt;&lt;/div&gt;&lt;div&gt;environment (e.g., dev-python-r)&lt;br&gt;&lt;/div&gt;" style="rounded=0;whiteSpace=wrap;html=1;fillColor=#f5f5f5;fontColor=#333333;strokeColor=#666666;" vertex="1" parent="V2b90kkNqWV_B73Vr2Vg-207">
          <mxGeometry width="240" height="110" as="geometry" />
        </mxCell>
        <mxCell id="V2b90kkNqWV_B73Vr2Vg-206" value="&lt;div align=&quot;left&quot;&gt;SSH : &lt;font color=&quot;#67ab9f&quot;&gt;&lt;b&gt;22&lt;/b&gt;&lt;/font&gt;&lt;/div&gt;&lt;div align=&quot;left&quot;&gt;Jupyter Notebook : &lt;font color=&quot;#67ab9f&quot;&gt;&lt;b&gt;8888&lt;/b&gt;&lt;/font&gt;&lt;br&gt;&lt;/div&gt;" style="text;html=1;strokeColor=default;fillColor=default;align=left;verticalAlign=middle;whiteSpace=wrap;rounded=0;" vertex="1" parent="V2b90kkNqWV_B73Vr2Vg-207">
          <mxGeometry y="110" width="240" height="49" as="geometry" />
        </mxCell>
        <mxCell id="V2b90kkNqWV_B73Vr2Vg-189" value="" style="group" vertex="1" connectable="0" parent="1">
          <mxGeometry x="921" y="2803" width="240" height="150" as="geometry" />
        </mxCell>
        <mxCell id="V2b90kkNqWV_B73Vr2Vg-130" value="&lt;div&gt;&lt;font size=&quot;1&quot;&gt;&lt;b style=&quot;font-size: 16px;&quot;&gt;gitlab-runner #1 (1..n)&lt;br&gt;&lt;/b&gt;&lt;/font&gt;&lt;/div&gt;&lt;br&gt;&lt;div&gt;Pipeline execution&lt;br&gt;(reproducible research + CI/CD)&lt;br&gt;&lt;/div&gt;" style="rounded=0;whiteSpace=wrap;html=1;fillColor=#f5f5f5;fontColor=#333333;strokeColor=#666666;" vertex="1" parent="V2b90kkNqWV_B73Vr2Vg-189">
          <mxGeometry y="40" width="240" height="110" as="geometry" />
        </mxCell>
        <mxCell id="V2b90kkNqWV_B73Vr2Vg-196" value="" style="group" vertex="1" connectable="0" parent="1">
          <mxGeometry x="369" y="3018.5" width="240" height="150" as="geometry" />
        </mxCell>
        <mxCell id="V2b90kkNqWV_B73Vr2Vg-197" value="&lt;div&gt;&lt;font size=&quot;1&quot;&gt;&lt;b style=&quot;font-size: 16px;&quot;&gt;gitlab-runner &lt;br&gt;pipeline container (0..n)&lt;br&gt;&lt;/b&gt;&lt;/font&gt;&lt;/div&gt;&lt;br&gt;&lt;div&gt;Container for a concrete pipeline run&lt;br&gt;&lt;/div&gt;" style="rounded=0;whiteSpace=wrap;html=1;fillColor=#f5f5f5;fontColor=#333333;strokeColor=#666666;" vertex="1" parent="V2b90kkNqWV_B73Vr2Vg-196">
          <mxGeometry y="40" width="240" height="110" as="geometry" />
        </mxCell>
        <mxCell id="V2b90kkNqWV_B73Vr2Vg-200" style="rounded=0;orthogonalLoop=1;jettySize=auto;html=1;exitX=0;exitY=0.5;exitDx=0;exitDy=0;entryX=1;entryY=0.5;entryDx=0;entryDy=0;endArrow=none;endFill=0;" edge="1" parent="1" source="V2b90kkNqWV_B73Vr2Vg-130" target="V2b90kkNqWV_B73Vr2Vg-194">
          <mxGeometry relative="1" as="geometry" />
        </mxCell>
        <mxCell id="V2b90kkNqWV_B73Vr2Vg-202" style="rounded=0;orthogonalLoop=1;jettySize=auto;html=1;entryX=1;entryY=0.5;entryDx=0;entryDy=0;exitX=0;exitY=0.5;exitDx=0;exitDy=0;endArrow=none;endFill=0;" edge="1" parent="1" source="V2b90kkNqWV_B73Vr2Vg-130" target="V2b90kkNqWV_B73Vr2Vg-197">
          <mxGeometry relative="1" as="geometry" />
        </mxCell>
        <mxCell id="V2b90kkNqWV_B73Vr2Vg-212" value="12345" style="text;html=1;strokeColor=default;fillColor=default;align=center;verticalAlign=middle;whiteSpace=wrap;rounded=0;" vertex="1" parent="1">
          <mxGeometry x="205" y="2587" width="80" height="30" as="geometry" />
        </mxCell>
        <mxCell id="V2b90kkNqWV_B73Vr2Vg-213" value="12346" style="text;html=1;strokeColor=default;fillColor=default;align=center;verticalAlign=middle;whiteSpace=wrap;rounded=0;" vertex="1" parent="1">
          <mxGeometry x="205" y="2617" width="80" height="30" as="geometry" />
        </mxCell>
        <mxCell id="V2b90kkNqWV_B73Vr2Vg-214" value="&lt;b&gt;random external ports:&lt;/b&gt;" style="text;html=1;strokeColor=none;fillColor=none;align=center;verticalAlign=middle;whiteSpace=wrap;rounded=0;" vertex="1" parent="1">
          <mxGeometry x="200" y="2552" width="90" height="30" as="geometry" />
        </mxCell>
        <mxCell id="V2b90kkNqWV_B73Vr2Vg-215" style="rounded=0;orthogonalLoop=1;jettySize=auto;html=1;exitX=0;exitY=0.5;exitDx=0;exitDy=0;entryX=1;entryY=0.5;entryDx=0;entryDy=0;endArrow=none;endFill=0;" edge="1" parent="1" source="V2b90kkNqWV_B73Vr2Vg-206" target="V2b90kkNqWV_B73Vr2Vg-212">
          <mxGeometry relative="1" as="geometry" />
        </mxCell>
        <mxCell id="V2b90kkNqWV_B73Vr2Vg-216" style="rounded=0;orthogonalLoop=1;jettySize=auto;html=1;exitX=0;exitY=0.5;exitDx=0;exitDy=0;entryX=1;entryY=0.5;entryDx=0;entryDy=0;endArrow=none;endFill=0;" edge="1" parent="1" source="V2b90kkNqWV_B73Vr2Vg-206" target="V2b90kkNqWV_B73Vr2Vg-213">
          <mxGeometry relative="1" as="geometry" />
        </mxCell>
        <mxCell id="V2b90kkNqWV_B73Vr2Vg-224" value="" style="group" vertex="1" connectable="0" parent="1">
          <mxGeometry x="-300" y="2499" width="280" height="160" as="geometry" />
        </mxCell>
        <mxCell id="V2b90kkNqWV_B73Vr2Vg-218" value="" style="verticalLabelPosition=bottom;html=1;verticalAlign=top;align=center;strokeColor=#6c8ebf;fillColor=#dae8fc;shape=mxgraph.azure.computer;pointerEvents=1;" vertex="1" parent="V2b90kkNqWV_B73Vr2Vg-224">
          <mxGeometry x="115" width="50" height="45" as="geometry" />
        </mxCell>
        <mxCell id="V2b90kkNqWV_B73Vr2Vg-221" value="&lt;div&gt;&lt;font size=&quot;1&quot;&gt;&lt;b style=&quot;font-size: 16px;&quot;&gt;development machine&lt;br&gt;(e.g., with DataSpell, VSCode)&lt;br&gt;&lt;/b&gt;&lt;/font&gt;&lt;/div&gt;&lt;br&gt;&lt;div&gt;An IDE with remote development capabilities (usually over SSH) on a separate machine&lt;br&gt;&lt;/div&gt;" style="rounded=0;whiteSpace=wrap;html=1;fillColor=#dae8fc;strokeColor=#6c8ebf;" vertex="1" parent="V2b90kkNqWV_B73Vr2Vg-224">
          <mxGeometry y="50" width="280" height="110" as="geometry" />
        </mxCell>
        <mxCell id="V2b90kkNqWV_B73Vr2Vg-225" style="rounded=0;orthogonalLoop=1;jettySize=auto;html=1;exitX=1;exitY=0.5;exitDx=0;exitDy=0;entryX=0;entryY=0.5;entryDx=0;entryDy=0;endArrow=none;endFill=0;" edge="1" parent="1" source="V2b90kkNqWV_B73Vr2Vg-221" target="V2b90kkNqWV_B73Vr2Vg-212">
          <mxGeometry relative="1" as="geometry" />
        </mxCell>
        <mxCell id="V2b90kkNqWV_B73Vr2Vg-226" value="SSH access" style="edgeLabel;html=1;align=center;verticalAlign=middle;resizable=0;points=[];" vertex="1" connectable="0" parent="V2b90kkNqWV_B73Vr2Vg-225">
          <mxGeometry x="0.1397" relative="1" as="geometry">
            <mxPoint x="-18" as="offset" />
          </mxGeometry>
        </mxCell>
        <mxCell id="V2b90kkNqWV_B73Vr2Vg-227" style="rounded=0;orthogonalLoop=1;jettySize=auto;html=1;exitX=1;exitY=0.75;exitDx=0;exitDy=0;entryX=0;entryY=0.5;entryDx=0;entryDy=0;endArrow=none;endFill=0;" edge="1" parent="1" source="V2b90kkNqWV_B73Vr2Vg-221" target="V2b90kkNqWV_B73Vr2Vg-213">
          <mxGeometry relative="1" as="geometry" />
        </mxCell>
        <mxCell id="V2b90kkNqWV_B73Vr2Vg-228" value="Jupyter Notebook access" style="edgeLabel;html=1;align=center;verticalAlign=middle;resizable=0;points=[];" vertex="1" connectable="0" parent="V2b90kkNqWV_B73Vr2Vg-227">
          <mxGeometry x="-0.1074" y="-2" relative="1" as="geometry">
            <mxPoint x="5" y="-1" as="offset" />
          </mxGeometry>
        </mxCell>
        <mxCell id="V2b90kkNqWV_B73Vr2Vg-230" value="" style="rounded=0;whiteSpace=wrap;html=1;" vertex="1" parent="1">
          <mxGeometry x="35" y="1303" width="5" height="120" as="geometry" />
        </mxCell>
        <mxCell id="V2b90kkNqWV_B73Vr2Vg-231" style="edgeStyle=orthogonalEdgeStyle;rounded=0;orthogonalLoop=1;jettySize=auto;html=1;exitX=1;exitY=0.5;exitDx=0;exitDy=0;entryX=0;entryY=0.5;entryDx=0;entryDy=0;endArrow=none;endFill=0;" edge="1" parent="1" source="V2b90kkNqWV_B73Vr2Vg-130" target="V2b90kkNqWV_B73Vr2Vg-230">
          <mxGeometry relative="1" as="geometry">
            <mxPoint x="-60" y="1880" as="targetPoint" />
            <Array as="points">
              <mxPoint x="1590" y="2898" />
              <mxPoint x="1590" y="2260" />
              <mxPoint x="-50" y="2260" />
              <mxPoint x="-50" y="1363" />
            </Array>
          </mxGeometry>
        </mxCell>
        <mxCell id="V2b90kkNqWV_B73Vr2Vg-235" value="example communication&lt;br&gt;between the runner&lt;br&gt;&lt;div&gt;and service hosts&lt;/div&gt;" style="edgeLabel;html=1;align=center;verticalAlign=middle;resizable=0;points=[];" vertex="1" connectable="0" parent="V2b90kkNqWV_B73Vr2Vg-231">
          <mxGeometry x="0.7866" y="2" relative="1" as="geometry">
            <mxPoint y="-392" as="offset" />
          </mxGeometry>
        </mxCell>
        <mxCell id="V2b90kkNqWV_B73Vr2Vg-237" value="" style="rounded=1;whiteSpace=wrap;html=1;fillColor=none;strokeWidth=3;" vertex="1" parent="1">
          <mxGeometry x="430" y="3510" width="870" height="280" as="geometry" />
        </mxCell>
        <mxCell id="V2b90kkNqWV_B73Vr2Vg-238" value="legend" style="text;html=1;strokeColor=default;fillColor=default;align=center;verticalAlign=middle;whiteSpace=wrap;rounded=0;" vertex="1" parent="1">
          <mxGeometry x="802" y="3500" width="120" height="20" as="geometry" />
        </mxCell>
        <mxCell id="V2b90kkNqWV_B73Vr2Vg-241" value="&lt;div&gt;&lt;font size=&quot;1&quot;&gt;&lt;b style=&quot;font-size: 16px;&quot;&gt;...&lt;br&gt;&lt;/b&gt;&lt;/font&gt;&lt;/div&gt;..." style="rounded=0;whiteSpace=wrap;html=1;fillColor=#f5f5f5;fontColor=#333333;strokeColor=#666666;" vertex="1" parent="1">
          <mxGeometry x="470" y="3560" width="80" height="40" as="geometry" />
        </mxCell>
        <mxCell id="V2b90kkNqWV_B73Vr2Vg-243" value="a docker container" style="text;html=1;strokeColor=default;fillColor=default;align=center;verticalAlign=middle;whiteSpace=wrap;rounded=0;" vertex="1" parent="1">
          <mxGeometry x="590" y="3565" width="227.5" height="30" as="geometry" />
        </mxCell>
        <mxCell id="V2b90kkNqWV_B73Vr2Vg-244" value="&lt;div align=&quot;left&quot;&gt;http://...:&lt;font color=&quot;#67ab9f&quot;&gt;&lt;b&gt;XXXX&lt;/b&gt;&lt;/font&gt;&lt;/div&gt;" style="text;html=1;strokeColor=default;fillColor=default;align=left;verticalAlign=middle;whiteSpace=wrap;rounded=0;" vertex="1" parent="1">
          <mxGeometry x="470" y="3630" width="80" height="40" as="geometry" />
        </mxCell>
        <mxCell id="V2b90kkNqWV_B73Vr2Vg-245" value="an internal docker service &lt;br&gt;&lt;div align=&quot;center&quot;&gt;url with port &lt;font color=&quot;#67ab9f&quot;&gt;&lt;b&gt;XXXX&lt;/b&gt;&lt;/font&gt;&lt;br&gt;&lt;/div&gt;" style="text;html=1;strokeColor=default;fillColor=default;align=center;verticalAlign=middle;whiteSpace=wrap;rounded=0;" vertex="1" parent="1">
          <mxGeometry x="590" y="3630" width="227.5" height="40" as="geometry" />
        </mxCell>
        <mxCell id="V2b90kkNqWV_B73Vr2Vg-246" value="&lt;div align=&quot;left&quot;&gt;...:&lt;font color=&quot;#67ab9f&quot;&gt;&lt;b&gt;XX&lt;/b&gt;&lt;/font&gt;&lt;/div&gt;&lt;div&gt;&lt;div align=&quot;left&quot;&gt;http(&lt;font color=&quot;#ff0000&quot;&gt;s&lt;/font&gt;)://...:&lt;font color=&quot;#67ab9f&quot;&gt;&lt;b&gt;XXXX&lt;/b&gt;&lt;/font&gt;&lt;/div&gt;&lt;/div&gt;" style="text;html=1;strokeColor=default;fillColor=default;align=left;verticalAlign=middle;whiteSpace=wrap;rounded=0;" vertex="1" parent="1">
          <mxGeometry x="910" y="3560" width="100" height="40" as="geometry" />
        </mxCell>
        <mxCell id="V2b90kkNqWV_B73Vr2Vg-247" value="&lt;div align=&quot;center&quot;&gt;an external docker service&lt;br&gt; url with port &lt;font color=&quot;#67ab9f&quot;&gt;&lt;b&gt;XXXX &lt;br&gt;&lt;/b&gt;&lt;/font&gt;optionally accessible over http or http&lt;font color=&quot;#ff0000&quot;&gt;s&lt;/font&gt;&lt;br&gt;&lt;/div&gt;" style="text;html=1;strokeColor=default;fillColor=default;align=center;verticalAlign=middle;whiteSpace=wrap;rounded=0;" vertex="1" parent="1">
          <mxGeometry x="1030" y="3555" width="227.5" height="50" as="geometry" />
        </mxCell>
        <mxCell id="V2b90kkNqWV_B73Vr2Vg-249" value="..." style="sketch=0;outlineConnect=0;fontColor=#232F3E;gradientColor=none;fillColor=#232F3D;strokeColor=none;dashed=0;verticalLabelPosition=bottom;verticalAlign=top;align=center;html=1;fontSize=12;fontStyle=0;aspect=fixed;pointerEvents=1;shape=mxgraph.aws4.folder;" vertex="1" parent="1">
          <mxGeometry x="910" y="3640" width="32.96" height="30" as="geometry" />
        </mxCell>
        <mxCell id="V2b90kkNqWV_B73Vr2Vg-254" value="a file system directory" style="text;html=1;strokeColor=default;fillColor=default;align=center;verticalAlign=middle;whiteSpace=wrap;rounded=0;" vertex="1" parent="1">
          <mxGeometry x="1030" y="3640" width="227.5" height="30" as="geometry" />
        </mxCell>
        <mxCell id="V2b90kkNqWV_B73Vr2Vg-257" value="&lt;div align=&quot;center&quot;&gt;(0..n) / (1..n)&lt;/div&gt;" style="text;html=1;strokeColor=default;fillColor=default;align=center;verticalAlign=middle;whiteSpace=wrap;rounded=0;" vertex="1" parent="1">
          <mxGeometry x="470" y="3700" width="80" height="40" as="geometry" />
        </mxCell>
        <mxCell id="V2b90kkNqWV_B73Vr2Vg-258" value="quantity: &lt;br&gt;0 or n / 1 or n" style="text;html=1;strokeColor=default;fillColor=default;align=center;verticalAlign=middle;whiteSpace=wrap;rounded=0;" vertex="1" parent="1">
          <mxGeometry x="590" y="3700" width="227.5" height="40" as="geometry" />
        </mxCell>
        <mxCell id="V2b90kkNqWV_B73Vr2Vg-209" value="" style="group" vertex="1" connectable="0" parent="1">
          <mxGeometry x="369" y="2846" width="240" height="150" as="geometry" />
        </mxCell>
        <mxCell id="V2b90kkNqWV_B73Vr2Vg-194" value="&lt;div&gt;&lt;font size=&quot;1&quot;&gt;&lt;b style=&quot;font-size: 16px;&quot;&gt;gitlab-runner &lt;br&gt;pipeline container (0..n)&lt;br&gt;&lt;/b&gt;&lt;/font&gt;&lt;/div&gt;&lt;br&gt;&lt;div&gt;Container for a concrete pipeline run&lt;br&gt;&lt;/div&gt;" style="rounded=0;whiteSpace=wrap;html=1;fillColor=#f5f5f5;fontColor=#333333;strokeColor=#666666;" vertex="1" parent="V2b90kkNqWV_B73Vr2Vg-209">
          <mxGeometry y="40" width="240" height="110" as="geometry" />
        </mxCell>
      </root>
    </mxGraphModel>
  </diagram>
</mxfile>
